<?xml version="1.0" encoding="utf-8"?>
<!-- Generator: Adobe Illustrator 16.0.3, SVG Export Plug-In . SVG Version: 6.00 Build 0)  -->
<!DOCTYPE svg PUBLIC "-//W3C//DTD SVG 1.1//EN" "http://www.w3.org/Graphics/SVG/1.1/DTD/svg11.dtd">
<svg version="1.1" id="Capa_1" xmlns="http://www.w3.org/2000/svg" xmlns:xlink="http://www.w3.org/1999/xlink" x="0px" y="0px"
	 width="307px" height="158.333px" viewBox="76.5 170.5 307 158.333" enable-background="new 76.5 170.5 307 158.333"
	 xml:space="preserve">
<g>
	<defs>
		<rect id="SVGID_1_" x="84.276" y="178.755" width="145.516" height="141.995"/>
	</defs>
	<clipPath id="SVGID_2_">
		<use xlink:href="#SVGID_1_"  overflow="visible"/>
	</clipPath>
	<g clip-path="url(#SVGID_2_)">
		
			<linearGradient id="SVGID_3_" gradientUnits="userSpaceOnUse" x1="-727.2292" y1="1171.4817" x2="-660.2824" y2="1104.5359" gradientTransform="matrix(2.1473 0 0 -2.1473 1646.7119 2693.457)">
			<stop  offset="0" style="stop-color:#AD8330"/>
			<stop  offset="0.0078" style="stop-color:#AC8330"/>
			<stop  offset="0.0156" style="stop-color:#AC8230"/>
			<stop  offset="0.0234" style="stop-color:#AB822F"/>
			<stop  offset="0.0313" style="stop-color:#AA812F"/>
			<stop  offset="0.0391" style="stop-color:#A9802F"/>
			<stop  offset="0.0469" style="stop-color:#A8802F"/>
			<stop  offset="0.0547" style="stop-color:#A77F2E"/>
			<stop  offset="0.0625" style="stop-color:#A67E2E"/>
			<stop  offset="0.0703" style="stop-color:#A67E2E"/>
			<stop  offset="0.0781" style="stop-color:#A57D2E"/>
			<stop  offset="0.0859" style="stop-color:#A47D2D"/>
			<stop  offset="0.0938" style="stop-color:#A37C2D"/>
			<stop  offset="0.1016" style="stop-color:#A27B2D"/>
			<stop  offset="0.1094" style="stop-color:#A17B2D"/>
			<stop  offset="0.1172" style="stop-color:#A07A2C"/>
			<stop  offset="0.125" style="stop-color:#A07A2C"/>
			<stop  offset="0.1328" style="stop-color:#9F792C"/>
			<stop  offset="0.1406" style="stop-color:#9E782C"/>
			<stop  offset="0.1484" style="stop-color:#9D782B"/>
			<stop  offset="0.1563" style="stop-color:#9C772B"/>
			<stop  offset="0.1641" style="stop-color:#9B762B"/>
			<stop  offset="0.1719" style="stop-color:#9A762B"/>
			<stop  offset="0.1797" style="stop-color:#9A752A"/>
			<stop  offset="0.1875" style="stop-color:#99752A"/>
			<stop  offset="0.1953" style="stop-color:#98742A"/>
			<stop  offset="0.2031" style="stop-color:#97732A"/>
			<stop  offset="0.2109" style="stop-color:#967329"/>
			<stop  offset="0.2188" style="stop-color:#957229"/>
			<stop  offset="0.2266" style="stop-color:#947129"/>
			<stop  offset="0.2344" style="stop-color:#947129"/>
			<stop  offset="0.2422" style="stop-color:#937028"/>
			<stop  offset="0.25" style="stop-color:#927028"/>
			<stop  offset="0.2578" style="stop-color:#916F28"/>
			<stop  offset="0.2656" style="stop-color:#906E28"/>
			<stop  offset="0.2734" style="stop-color:#8F6E27"/>
			<stop  offset="0.2813" style="stop-color:#8E6D27"/>
			<stop  offset="0.2891" style="stop-color:#8E6D27"/>
			<stop  offset="0.2969" style="stop-color:#8D6C27"/>
			<stop  offset="0.3047" style="stop-color:#8C6B26"/>
			<stop  offset="0.3125" style="stop-color:#8B6B26"/>
			<stop  offset="0.3203" style="stop-color:#8A6A26"/>
			<stop  offset="0.3281" style="stop-color:#896926"/>
			<stop  offset="0.3359" style="stop-color:#886925"/>
			<stop  offset="0.3438" style="stop-color:#886825"/>
			<stop  offset="0.3516" style="stop-color:#876825"/>
			<stop  offset="0.3594" style="stop-color:#866725"/>
			<stop  offset="0.3672" style="stop-color:#856624"/>
			<stop  offset="0.375" style="stop-color:#846624"/>
			<stop  offset="0.3828" style="stop-color:#836524"/>
			<stop  offset="0.3906" style="stop-color:#826524"/>
			<stop  offset="0.3984" style="stop-color:#826423"/>
			<stop  offset="0.4063" style="stop-color:#816323"/>
			<stop  offset="0.4141" style="stop-color:#806323"/>
			<stop  offset="0.4219" style="stop-color:#7F6223"/>
			<stop  offset="0.4297" style="stop-color:#7E6122"/>
			<stop  offset="0.4375" style="stop-color:#7D6122"/>
			<stop  offset="0.4453" style="stop-color:#7C6022"/>
			<stop  offset="0.4531" style="stop-color:#7C6022"/>
			<stop  offset="0.4609" style="stop-color:#7B5F21"/>
			<stop  offset="0.4688" style="stop-color:#7A5E21"/>
			<stop  offset="0.4766" style="stop-color:#795E21"/>
			<stop  offset="0.4844" style="stop-color:#785D21"/>
			<stop  offset="0.4922" style="stop-color:#775C20"/>
			<stop  offset="0.4939" style="stop-color:#765C20"/>
			<stop  offset="0.5" style="stop-color:#765C20"/>
			<stop  offset="0.5061" style="stop-color:#765B20"/>
			<stop  offset="0.5078" style="stop-color:#755B20"/>
			<stop  offset="0.5156" style="stop-color:#755B20"/>
			<stop  offset="0.5234" style="stop-color:#745A1F"/>
			<stop  offset="0.5313" style="stop-color:#73591F"/>
			<stop  offset="0.5391" style="stop-color:#72591F"/>
			<stop  offset="0.5469" style="stop-color:#71581F"/>
			<stop  offset="0.5547" style="stop-color:#70581E"/>
			<stop  offset="0.5625" style="stop-color:#70571E"/>
			<stop  offset="0.5703" style="stop-color:#6F561E"/>
			<stop  offset="0.5781" style="stop-color:#6E561E"/>
			<stop  offset="0.5859" style="stop-color:#6D551D"/>
			<stop  offset="0.5938" style="stop-color:#6C541D"/>
			<stop  offset="0.6016" style="stop-color:#6B541D"/>
			<stop  offset="0.6094" style="stop-color:#6A531D"/>
			<stop  offset="0.6172" style="stop-color:#6A531C"/>
			<stop  offset="0.625" style="stop-color:#69521C"/>
			<stop  offset="0.6328" style="stop-color:#68511C"/>
			<stop  offset="0.6406" style="stop-color:#67511C"/>
			<stop  offset="0.6484" style="stop-color:#66501B"/>
			<stop  offset="0.6563" style="stop-color:#65501B"/>
			<stop  offset="0.6641" style="stop-color:#644F1B"/>
			<stop  offset="0.6719" style="stop-color:#644E1B"/>
			<stop  offset="0.6797" style="stop-color:#634E1A"/>
			<stop  offset="0.6875" style="stop-color:#624D1A"/>
			<stop  offset="0.6953" style="stop-color:#614C1A"/>
			<stop  offset="0.7031" style="stop-color:#604C1A"/>
			<stop  offset="0.7109" style="stop-color:#5F4B19"/>
			<stop  offset="0.7188" style="stop-color:#5E4B19"/>
			<stop  offset="0.7266" style="stop-color:#5E4A19"/>
			<stop  offset="0.7344" style="stop-color:#5D4919"/>
			<stop  offset="0.7422" style="stop-color:#5C4918"/>
			<stop  offset="0.75" style="stop-color:#5B4818"/>
			<stop  offset="0.7578" style="stop-color:#5A4818"/>
			<stop  offset="0.7656" style="stop-color:#594718"/>
			<stop  offset="0.7734" style="stop-color:#584617"/>
			<stop  offset="0.7813" style="stop-color:#574617"/>
			<stop  offset="0.7891" style="stop-color:#574517"/>
			<stop  offset="0.7969" style="stop-color:#564417"/>
			<stop  offset="0.8047" style="stop-color:#554416"/>
			<stop  offset="0.8125" style="stop-color:#544316"/>
			<stop  offset="0.8203" style="stop-color:#534316"/>
			<stop  offset="0.8281" style="stop-color:#524216"/>
			<stop  offset="0.8359" style="stop-color:#514115"/>
			<stop  offset="0.8438" style="stop-color:#514115"/>
			<stop  offset="0.8516" style="stop-color:#504015"/>
			<stop  offset="0.8594" style="stop-color:#4F3F15"/>
			<stop  offset="0.8672" style="stop-color:#4E3F14"/>
			<stop  offset="0.875" style="stop-color:#4D3E14"/>
			<stop  offset="0.8828" style="stop-color:#4C3E14"/>
			<stop  offset="0.8906" style="stop-color:#4B3D14"/>
			<stop  offset="0.8984" style="stop-color:#4B3C13"/>
			<stop  offset="0.9063" style="stop-color:#4A3C13"/>
			<stop  offset="0.9141" style="stop-color:#493B13"/>
			<stop  offset="0.9219" style="stop-color:#483B13"/>
			<stop  offset="0.9297" style="stop-color:#473A12"/>
			<stop  offset="0.9375" style="stop-color:#463912"/>
			<stop  offset="0.9453" style="stop-color:#453912"/>
			<stop  offset="0.9531" style="stop-color:#453812"/>
			<stop  offset="0.9609" style="stop-color:#443711"/>
			<stop  offset="0.9688" style="stop-color:#433711"/>
			<stop  offset="0.9766" style="stop-color:#423611"/>
			<stop  offset="0.9844" style="stop-color:#413611"/>
			<stop  offset="0.9922" style="stop-color:#403510"/>
			<stop  offset="1" style="stop-color:#3F3410"/>
		</linearGradient>
		<path fill="none" stroke="url(#SVGID_3_)" stroke-width="15" d="M229.792,281.167v39.733H84.276V178.755h145.516v38.246"/>
	</g>
</g>
<g>
	<g transform="translate(94.975765, 199.99071)">
		<g>
			<path fill="#AD8330" d="M42.534,33.914v32.75h-7.979v-32.75H42.534z"/>
		</g>
	</g>
</g>
<g>
	<g transform="translate(106.768438, 199.99071)">
		<g>
			<path fill="#AD8330" d="M67.798,66.664h-7.979L46.465,46.455v20.209h-7.979v-32.75h7.979l13.354,20.291V33.914h7.979V66.664z"/>
		</g>
	</g>
</g>
<g>
	<g transform="translate(134.552505, 199.99071)">
		<g>
			<path fill="#AD8330" d="M59.601,66.997c-2.406,0-4.557-0.386-6.458-1.167c-1.891-0.775-3.406-1.927-4.542-3.458
				c-1.125-1.526-1.724-3.359-1.791-5.5h8.5c0.125,1.208,0.541,2.136,1.25,2.771c0.719,0.641,1.656,0.959,2.813,0.959
				c1.177,0,2.109-0.271,2.791-0.813c0.678-0.553,1.021-1.313,1.021-2.271c0-0.802-0.271-1.469-0.813-2
				c-0.542-0.525-1.209-0.963-2-1.313c-0.792-0.344-1.928-0.734-3.396-1.166c-2.114-0.651-3.844-1.303-5.188-1.959
				c-1.333-0.65-2.479-1.614-3.438-2.896c-0.958-1.276-1.438-2.942-1.438-5c0-3.042,1.104-5.422,3.313-7.146
				c2.209-1.734,5.084-2.604,8.625-2.604c3.609,0,6.521,0.87,8.729,2.604c2.208,1.724,3.386,4.125,3.542,7.208h-8.625
				c-0.073-1.067-0.469-1.901-1.188-2.5c-0.709-0.609-1.62-0.917-2.729-0.917c-0.974,0-1.761,0.261-2.354,0.771
				c-0.583,0.516-0.875,1.25-0.875,2.208c0,1.073,0.49,1.906,1.479,2.5c1,0.583,2.563,1.219,4.688,1.896
				c2.109,0.709,3.823,1.396,5.146,2.063c1.318,0.656,2.459,1.604,3.417,2.854c0.969,1.239,1.458,2.833,1.458,4.792
				c0,1.864-0.474,3.557-1.416,5.083c-0.948,1.531-2.323,2.745-4.125,3.646C64.189,66.549,62.06,66.997,59.601,66.997z"/>
		</g>
	</g>
</g>
<g>
	<g transform="translate(157.542648, 199.99071)">
		<g>
			<path fill="#AD8330" d="M80.368,44.455c0,1.891-0.438,3.625-1.313,5.209c-0.864,1.572-2.197,2.844-4,3.813
				c-1.807,0.958-4.052,1.438-6.729,1.438H63.39v11.75H55.41v-32.75h12.917c2.625,0,4.833,0.453,6.625,1.354
				c1.802,0.891,3.156,2.136,4.063,3.729C79.915,40.58,80.368,42.403,80.368,44.455z M67.723,48.559
				c1.526,0,2.667-0.354,3.417-1.063c0.75-0.719,1.125-1.734,1.125-3.042c0-1.302-0.375-2.313-1.125-3.021
				c-0.75-0.719-1.891-1.083-3.417-1.083H63.39v8.208H67.723z"/>
		</g>
	</g>
</g>
<g>
	<g transform="translate(180.847722, 199.99071)">
		<g>
			<path fill="#AD8330" d="M71.158,33.914v32.75h-7.979v-32.75H71.158z"/>
		</g>
	</g>
</g>
<g>
	<g transform="translate(192.640394, 199.99071)">
		<g>
			<path fill="#AD8330" d="M83.817,66.664l-6.813-12.375h-1.916v12.375h-7.979v-32.75h13.396c2.584,0,4.781,0.453,6.604,1.354
				c1.817,0.891,3.177,2.125,4.083,3.709c0.901,1.572,1.354,3.322,1.354,5.25c0,2.166-0.62,4.114-1.854,5.833
				c-1.224,1.708-3.036,2.917-5.438,3.625l7.563,12.979H83.817z M75.089,48.642h4.938c1.469,0,2.567-0.354,3.291-1.063
				c0.734-0.719,1.104-1.734,1.104-3.041c0-1.234-0.37-2.209-1.104-2.917c-0.724-0.719-1.822-1.083-3.291-1.083h-4.938V48.642z"/>
		</g>
	</g>
</g>
<g>
	<g transform="translate(216.925248, 199.99071)">
		<g>
			<path fill="#AD8330" d="M83.184,33.914v32.75h-7.979v-32.75H83.184z"/>
		</g>
	</g>
</g>
<g>
	<g transform="translate(228.717926, 199.99071)">
		<g>
			<path fill="#AD8330" d="M108.448,66.664h-7.979L87.115,46.455v20.209h-7.979v-32.75h7.979l13.354,20.291V33.914h7.979V66.664z"/>
		</g>
	</g>
</g>
<g>
	<g transform="translate(256.501993, 199.99071)">
		<g>
			<path fill="#AD8330" d="M110.147,44.267c-0.6-1.094-1.453-1.927-2.563-2.5c-1.1-0.567-2.391-0.854-3.875-0.854
				c-2.584,0-4.656,0.849-6.209,2.541c-1.557,1.698-2.333,3.959-2.333,6.792c0,3.016,0.813,5.37,2.438,7.063
				c1.636,1.698,3.886,2.542,6.75,2.542c1.958,0,3.609-0.49,4.958-1.479c1.359-1,2.354-2.438,2.979-4.313h-10.125v-5.875h17.354
				v7.417c-0.6,1.989-1.604,3.844-3.021,5.563c-1.406,1.708-3.197,3.094-5.375,4.146c-2.182,1.058-4.641,1.583-7.375,1.583
				c-3.239,0-6.125-0.708-8.666-2.125c-2.531-1.416-4.5-3.38-5.917-5.896c-1.417-2.526-2.125-5.401-2.125-8.625
				c0-3.234,0.708-6.125,2.125-8.667c1.417-2.541,3.38-4.51,5.896-5.916c2.526-1.417,5.406-2.125,8.646-2.125
				c3.916,0,7.213,0.953,9.896,2.854c2.692,1.891,4.479,4.516,5.354,7.875H110.147z"/>
		</g>
	</g>
</g>
<g>
	<g transform="translate(177.765197, 213.306183)">
		<g>
			<path fill="none" stroke="#AD8330" stroke-linecap="round" stroke-linejoin="round" stroke-miterlimit="10" d="M63.558,61.069
				v10.76h-2.021v-4.574h-4.282v4.574h-2.021v-10.76h2.021v4.43h4.282v-4.43H63.558z"/>
		</g>
	</g>
</g>
<g>
	<g transform="translate(185.832365, 213.306183)">
		<g>
			<path fill="none" stroke="#AD8330" stroke-linecap="round" stroke-linejoin="round" stroke-miterlimit="10" d="M63.417,71.925
				c-0.942,0-1.813-0.229-2.602-0.698c-0.782-0.462-1.405-1.112-1.865-1.95c-0.462-0.848-0.694-1.805-0.694-2.863
				c0-1.041,0.232-1.979,0.694-2.815c0.46-0.831,1.083-1.48,1.865-1.95c0.789-0.482,1.659-0.723,2.602-0.723
				c0.943,0,1.799,0.24,2.582,0.723c0.769,0.47,1.389,1.119,1.836,1.95c0.465,0.836,0.694,1.774,0.694,2.815
				c0,1.059-0.229,2.016-0.694,2.863c-0.447,0.838-1.073,1.488-1.857,1.95C65.196,71.696,64.344,71.925,63.417,71.925z M63.417,70
				c0.593,0,1.121-0.146,1.567-0.435c0.465-0.289,0.818-0.703,1.078-1.251c0.27-0.542,0.404-1.179,0.404-1.901
				c0-0.704-0.135-1.33-0.404-1.877c-0.26-0.541-0.613-0.951-1.078-1.228c-0.446-0.289-0.975-0.433-1.567-0.433
				c-0.617,0-1.156,0.144-1.616,0.433c-0.466,0.276-0.825,0.687-1.078,1.228c-0.254,0.547-0.378,1.173-0.378,1.877
				c0,0.723,0.124,1.359,0.378,1.901c0.253,0.548,0.612,0.962,1.078,1.251C62.261,69.854,62.8,70,63.417,70z"/>
		</g>
	</g>
</g>
<g>
	<g transform="translate(194.579267, 213.306183)">
		<g>
			<path fill="none" stroke="#AD8330" stroke-linecap="round" stroke-linejoin="round" stroke-miterlimit="10" d="M73.485,61.069
				v10.76h-1.992v-7.004l-2.695,7.004h-1.523l-2.694-7.004v7.004h-2.013v-10.76h2.282l3.191,7.991l3.183-7.991H73.485z"/>
		</g>
	</g>
</g>
<g>
	<g transform="translate(204.465715, 213.306183)">
		<g>
			<path fill="none" stroke="#AD8330" stroke-linecap="round" stroke-linejoin="round" stroke-miterlimit="10" d="M68.89,62.826
				v2.696h3.369v1.709H68.89v2.84h3.794v1.758h-5.815v-10.76h5.815v1.757H68.89z"/>
		</g>
	</g>
</g>
<g>
	<g transform="translate(210.68361, 213.306183)">
	</g>
</g>
<g>
	<g transform="translate(213.962674, 213.306183)">
		<g>
			<path fill="none" stroke="#AD8330" stroke-linecap="round" stroke-linejoin="round" stroke-miterlimit="10" d="M74.463,71.925
				c-0.689,0-1.313-0.126-1.878-0.385c-0.555-0.252-1.005-0.626-1.327-1.107c-0.327-0.481-0.496-1.047-0.496-1.708h2.156
				c0.025,0.451,0.166,0.806,0.425,1.059c0.27,0.259,0.631,0.386,1.078,0.386c0.48,0,0.851-0.121,1.12-0.361
				c0.27-0.242,0.404-0.56,0.404-0.964c0-0.3-0.096-0.56-0.291-0.769c-0.177-0.207-0.404-0.369-0.674-0.482
				c-0.27-0.127-0.646-0.266-1.12-0.409c-0.663-0.192-1.191-0.385-1.596-0.578c-0.404-0.204-0.753-0.512-1.049-0.914
				c-0.285-0.415-0.426-0.964-0.426-1.638c0-0.637,0.146-1.191,0.447-1.66c0.295-0.481,0.705-0.844,1.233-1.083
				c0.539-0.254,1.146-0.386,1.836-0.386c1.036,0,1.87,0.277,2.519,0.818c0.649,0.529,1.011,1.276,1.078,2.239h-2.207
				c-0.016-0.366-0.166-0.674-0.446-0.916c-0.27-0.24-0.623-0.36-1.078-0.36c-0.394,0-0.705,0.115-0.943,0.337
				c-0.234,0.211-0.354,0.523-0.354,0.939c0,0.288,0.084,0.529,0.27,0.722c0.177,0.181,0.394,0.331,0.645,0.457
				c0.27,0.115,0.643,0.253,1.128,0.41c0.657,0.191,1.184,0.396,1.588,0.602c0.415,0.21,0.771,0.522,1.057,0.938
				c0.296,0.403,0.446,0.938,0.446,1.613c0,0.577-0.145,1.119-0.425,1.612c-0.27,0.481-0.674,0.866-1.213,1.155
				C75.85,71.781,75.213,71.925,74.463,71.925z"/>
		</g>
	</g>
</g>
<g>
	<g transform="translate(220.950264, 213.306183)">
		<g>
			<path fill="none" stroke="#AD8330" stroke-linecap="round" stroke-linejoin="round" stroke-miterlimit="10" d="M78.726,71.925
				c-0.943,0-1.817-0.229-2.603-0.698c-0.782-0.462-1.408-1.112-1.865-1.95c-0.462-0.848-0.695-1.805-0.695-2.863
				c0-1.041,0.233-1.979,0.695-2.815c0.457-0.831,1.083-1.48,1.865-1.95c0.785-0.482,1.659-0.723,2.603-0.723
				s1.799,0.24,2.582,0.723c0.768,0.47,1.389,1.119,1.835,1.95c0.456,0.836,0.694,1.774,0.694,2.815
				c0,1.059-0.238,2.016-0.694,2.863c-0.446,0.838-1.073,1.488-1.866,1.95C80.505,71.696,79.645,71.925,78.726,71.925z M78.726,70
				c0.592,0,1.12-0.146,1.566-0.435c0.466-0.289,0.818-0.703,1.078-1.251c0.27-0.542,0.404-1.179,0.404-1.901
				c0-0.704-0.135-1.33-0.404-1.877c-0.26-0.541-0.612-0.951-1.078-1.228c-0.446-0.289-0.975-0.433-1.566-0.433
				c-0.621,0-1.16,0.144-1.617,0.433c-0.47,0.276-0.824,0.687-1.078,1.228c-0.259,0.547-0.384,1.173-0.384,1.877
				c0,0.723,0.125,1.359,0.384,1.901c0.254,0.548,0.608,0.962,1.078,1.251C77.566,69.854,78.105,70,78.726,70z"/>
		</g>
	</g>
</g>
<g>
	<g transform="translate(229.697166, 213.306183)">
		<g>
			<path fill="none" stroke="#AD8330" stroke-linecap="round" stroke-linejoin="round" stroke-miterlimit="10" d="M79.887,70.12
				h3.297v1.709h-5.318v-10.76h2.021V70.12z"/>
		</g>
	</g>
</g>
<g>
	<g transform="translate(235.185351, 213.306183)">
		<g>
			<path fill="none" stroke="#AD8330" stroke-linecap="round" stroke-linejoin="round" stroke-miterlimit="10" d="M82.234,61.069
				v6.668c0,0.722,0.183,1.276,0.536,1.661c0.362,0.385,0.864,0.577,1.503,0.577c0.643,0,1.149-0.192,1.504-0.577
				c0.361-0.385,0.539-0.939,0.539-1.661v-6.668h2.021v6.645c0,0.913-0.188,1.696-0.562,2.334c-0.361,0.627-0.85,1.102-1.481,1.42
				c-0.612,0.308-1.297,0.457-2.063,0.457c-0.732,0-1.406-0.149-2.021-0.457c-0.613-0.318-1.1-0.793-1.453-1.42
				c-0.352-0.638-0.518-1.421-0.518-2.334v-6.645H82.234z"/>
		</g>
	</g>
</g>
<g>
	<g transform="translate(243.052603, 213.306183)">
		<g>
			<path fill="none" stroke="#AD8330" stroke-linecap="round" stroke-linejoin="round" stroke-miterlimit="10" d="M90.515,61.069
				v1.757h-2.674v9.003h-2v-9.003h-2.687v-1.757H90.515z"/>
		</g>
	</g>
</g>
<g>
	<g transform="translate(249.72032, 213.306183)">
		<g>
			<path fill="none" stroke="#AD8330" stroke-linecap="round" stroke-linejoin="round" stroke-miterlimit="10" d="M88.611,61.069
				v10.76H86.6v-10.76H88.611z"/>
		</g>
	</g>
</g>
<g>
	<g transform="translate(253.399217, 213.306183)">
		<g>
			<path fill="none" stroke="#AD8330" stroke-linecap="round" stroke-linejoin="round" stroke-miterlimit="10" d="M92.862,71.925
				c-0.935,0-1.81-0.229-2.603-0.698c-0.772-0.462-1.399-1.112-1.855-1.95c-0.472-0.848-0.695-1.805-0.695-2.863
				c0-1.041,0.224-1.979,0.695-2.815c0.456-0.831,1.083-1.48,1.855-1.95c0.793-0.482,1.668-0.723,2.603-0.723
				c0.943,0,1.808,0.24,2.581,0.723c0.777,0.47,1.397,1.119,1.845,1.95c0.457,0.836,0.695,1.774,0.695,2.815
				c0,1.059-0.238,2.016-0.695,2.863c-0.447,0.838-1.072,1.488-1.865,1.95C94.641,71.696,93.79,71.925,92.862,71.925z M92.862,70
				c0.601,0,1.129-0.146,1.575-0.435c0.457-0.289,0.819-0.703,1.077-1.251c0.27-0.542,0.404-1.179,0.404-1.901
				c0-0.704-0.135-1.33-0.404-1.877c-0.258-0.541-0.62-0.951-1.077-1.228c-0.446-0.289-0.975-0.433-1.575-0.433
				c-0.612,0-1.151,0.144-1.608,0.433c-0.471,0.276-0.824,0.687-1.077,1.228c-0.259,0.547-0.384,1.173-0.384,1.877
				c0,0.723,0.125,1.359,0.384,1.901c0.253,0.548,0.606,0.962,1.077,1.251C91.711,69.854,92.25,70,92.862,70z"/>
		</g>
	</g>
</g>
<g>
	<g transform="translate(262.146119, 213.306183)">
		<g>
			<path fill="none" stroke="#AD8330" stroke-linecap="round" stroke-linejoin="round" stroke-miterlimit="10" d="M100.583,71.829
				h-1.999l-4.553-7.391v7.391h-2.021v-10.76h2.021l4.553,7.39v-7.39h1.999V71.829z"/>
		</g>
	</g>
</g>
<g>
	<g transform="translate(270.393223, 213.306183)">
		<g>
			<path fill="none" stroke="#AD8330" stroke-linecap="round" stroke-linejoin="round" stroke-miterlimit="10" d="M99.061,71.925
				c-0.689,0-1.32-0.126-1.887-0.385c-0.555-0.252-0.995-0.626-1.316-1.107c-0.337-0.481-0.498-1.047-0.498-1.708h2.156
				c0.026,0.451,0.166,0.806,0.426,1.059c0.27,0.259,0.623,0.386,1.078,0.386c0.472,0,0.85-0.121,1.119-0.361
				c0.27-0.242,0.404-0.56,0.404-0.964c0-0.3-0.104-0.56-0.29-0.769c-0.186-0.207-0.404-0.369-0.674-0.482
				c-0.27-0.127-0.647-0.266-1.12-0.409c-0.663-0.192-1.191-0.385-1.596-0.578c-0.404-0.204-0.761-0.512-1.058-0.914
				c-0.285-0.415-0.425-0.964-0.425-1.638c0-0.637,0.145-1.191,0.446-1.66c0.305-0.481,0.714-0.844,1.234-1.083
				c0.539-0.254,1.154-0.386,1.844-0.386c1.027,0,1.871,0.277,2.509,0.818c0.658,0.529,1.021,1.276,1.078,2.239h-2.197
				c-0.016-0.366-0.166-0.674-0.446-0.916c-0.27-0.24-0.632-0.36-1.078-0.36c-0.394,0-0.705,0.115-0.943,0.337
				c-0.243,0.211-0.361,0.523-0.361,0.939c0,0.288,0.092,0.529,0.27,0.722c0.185,0.181,0.393,0.331,0.651,0.457
				c0.27,0.115,0.643,0.253,1.12,0.41c0.658,0.191,1.192,0.396,1.597,0.602c0.414,0.21,0.771,0.522,1.057,0.938
				c0.296,0.403,0.446,0.938,0.446,1.613c0,0.577-0.146,1.119-0.425,1.612c-0.27,0.481-0.674,0.866-1.213,1.155
				C100.44,71.781,99.813,71.925,99.061,71.925z"/>
		</g>
	</g>
</g>
</svg>
